<svg xmlns="http://www.w3.org/2000/svg" viewBox="9496 1922 26 28.421"><defs><style>.cls-1{fill:none;stroke:#b2985e;stroke-miterlimit:10;stroke-width:2px}</style></defs><g id="basic_compass" transform="translate(-651 47)"><circle id="Ellipse_10" data-name="Ellipse 10" class="cls-1" cx="12" cy="12" r="12" transform="translate(10148 1878.421)"/><path id="Path_184" data-name="Path 184" d="M10162.121 1892.542l3.393-8.059-8.059 3.393-2.969 7.635z" stroke-linejoin="bevel" fill="none" stroke="#b2985e" stroke-miterlimit="10" stroke-width="2"/><path id="Line_33" data-name="Line 33" class="cls-1" transform="translate(10157.455 1887.876)" d="M0 0l4.666 4.666"/><path id="Path_185" data-name="Path 185" class="cls-1" d="M31.2 3.545a2.15 2.15 0 0 0 .042-.424 2.121 2.121 0 0 0-4.241 0 2.15 2.15 0 0 0 .042.424" transform="translate(10130.879 1875)"/><path id="Line_34" data-name="Line 34" class="cls-1" transform="translate(10160 1878.545)" d="M0 0v2.121"/><path id="Line_35" data-name="Line 35" class="cls-1" transform="translate(10160 1900.176)" d="M0 0v2.121"/><path id="Line_36" data-name="Line 36" class="cls-1" transform="translate(10169.756 1890.421)" d="M2.121 0H0"/><path id="Line_37" data-name="Line 37" class="cls-1" transform="translate(10148.124 1890.421)" d="M2.121 0H0"/></g></svg>