<svg xmlns="http://www.w3.org/2000/svg" viewBox="3615 2936 100 110.284"><defs><style>.cls-1{fill:none;stroke:#b2985e;stroke-miterlimit:10;stroke-width:4px}</style></defs><g id="basic_chronometer" transform="translate(3613 2937)"><path id="Path_65" data-name="Path 65" class="cls-1" d="M85.939 21.06a48 48 0 1 1-67.881 0 47.989 47.989 0 0 1 67.881 0z" transform="translate(0 4.285)"/><path id="Path_66" data-name="Path 66" class="cls-1" d="M32 11.285V1h10.285" transform="translate(19.999)"/><path id="Line_6" data-name="Line 6" class="cls-1" transform="translate(41.714 1)" d="M0 0h10.285"/><path id="Line_7" data-name="Line 7" class="cls-1" transform="translate(51.999 100.426)" d="M0 6.857V0"/><path id="Line_8" data-name="Line 8" class="cls-1" transform="translate(51.999 11.285)" d="M0 6.857V0"/><path id="Line_9" data-name="Line 9" class="cls-1" transform="translate(4 59.284)" d="M0 0h6.857"/><path id="Line_10" data-name="Line 10" class="cls-1" transform="translate(93.141 59.284)" d="M0 0h6.857"/><path id="Line_11" data-name="Line 11" class="cls-1" transform="translate(22.109 29.397)" d="M0 0l4.851 4.85"/><path id="Line_12" data-name="Line 12" class="cls-1" transform="translate(77.037 84.323)" d="M0 0l4.851 4.851"/><path id="Line_13" data-name="Line 13" class="cls-1" transform="translate(77.039 29.397)" d="M4.85 0L0 4.85"/><path id="Line_14" data-name="Line 14" class="cls-1" transform="translate(22.109 84.323)" d="M4.853 0L0 4.851"/><path id="Line_15" data-name="Line 15" class="cls-1" transform="translate(51.999 35.285)" d="M0 0v20.571"/><circle id="Ellipse_3" data-name="Ellipse 3" class="cls-1" cx="5.143" cy="5.143" r="5.143" transform="translate(46.856 54.142)"/></g></svg>