<svg xmlns="http://www.w3.org/2000/svg" viewBox="9494 2000 26 22.129"><defs><style>.cls-1{fill:none;stroke:#b2985e;stroke-miterlimit:10;stroke-width:2px}</style></defs><g id="basic_calendar" transform="translate(-672 549)"><g id="Group_44" data-name="Group 44" transform="translate(10167 1452)"><path id="Line_38" data-name="Line 38" class="cls-1" transform="translate(6.581 1.548)" d="M10.839 0H0"/><path id="Path_186" data-name="Path 186" class="cls-1" d="M5.258 10H1v18.581h24V10h-4.258" transform="translate(-1 -8.452)"/><path id="Rectangle_33" data-name="Rectangle 33" class="cls-1" transform="translate(4.258)" d="M0 0h2.323v3.097H0z"/><path id="Rectangle_34" data-name="Rectangle 34" class="cls-1" transform="translate(17.419)" d="M0 0h2.323v3.097H0z"/><path id="Rectangle_35" data-name="Rectangle 35" class="cls-1" transform="translate(3.484 6.968)" d="M0 0h3.871v3.871H0z"/><path id="Rectangle_36" data-name="Rectangle 36" class="cls-1" transform="translate(3.484 13.935)" d="M0 0h3.871v3.871H0z"/><path id="Rectangle_37" data-name="Rectangle 37" class="cls-1" transform="translate(16.645 6.968)" d="M0 0h3.871v3.871H0z"/><path id="Rectangle_38" data-name="Rectangle 38" class="cls-1" transform="translate(16.645 13.935)" d="M0 0h3.871v3.871H0z"/><path id="Rectangle_39" data-name="Rectangle 39" class="cls-1" transform="translate(10.065 6.968)" d="M0 0h3.871v3.871H0z"/><path id="Rectangle_40" data-name="Rectangle 40" class="cls-1" transform="translate(10.065 13.935)" d="M0 0h3.871v3.871H0z"/></g><path id="Line_39" data-name="Line 39" class="cls-1" transform="translate(10167 1456.645)" d="M0 0h24"/></g></svg>