<svg xmlns="http://www.w3.org/2000/svg" viewBox="3911 178 30.999 31"><path d="M3914.911 178.644l11.589 11.588 11.54-11.541a2.194 2.194 0 0 1 1.574-.691 2.384 2.384 0 0 1 2.386 2.384 2.146 2.146 0 0 1-.644 1.574l-11.662 11.542 11.66 11.66a2.146 2.146 0 0 1 .646 1.454 2.384 2.384 0 0 1-2.386 2.386 2.194 2.194 0 0 1-1.645-.644l-11.469-11.59-11.565 11.564a2.193 2.193 0 0 1-1.55.67 2.384 2.384 0 0 1-2.385-2.386 2.146 2.146 0 0 1 .644-1.574l11.656-11.54-11.656-11.661a2.146 2.146 0 0 1-.644-1.455 2.384 2.384 0 0 1 2.385-2.384 2.194 2.194 0 0 1 1.526.644z" fill="#89a6fb" data-name="Symbol 9 – 1"/></svg>