<svg xmlns="http://www.w3.org/2000/svg" viewBox="1484.965 2644 104.335 97.83"><defs><style>.cls-1{fill:none;stroke:#b2985e;stroke-linecap:round;stroke-linejoin:round;stroke-miterlimit:10;stroke-width:4px}</style></defs><g id="Symbol_53_1" data-name="Symbol 53 – 1" transform="translate(20 992)"><path id="Path_493" data-name="Path 493" class="cls-1" d="M78.107 32.811c9.217-3.774 24.228-10.011 24.228-10.011L52.123 2 2 22.717l50.123 20.716 18.171-7.461" transform="translate(1464.965 1652)"/><path id="Path_494" data-name="Path 494" class="cls-1" d="M88.7 43.275l24.228-10.007V31.6" transform="translate(1454.372 1648.383)"/><path id="Path_495" data-name="Path 495" class="cls-1" d="M2 31.6v1.668l50.123 20.8 19.049-7.9" transform="translate(1464.965 1648.383)"/><ellipse id="Ellipse_22" data-name="Ellipse 22" class="cls-1" cx="5.179" cy="3.423" rx="5.179" ry="3.423" transform="translate(1511.91 1671.293)"/><path id="Path_496" data-name="Path 496" class="cls-1" d="M63.9 27.9l21.77 8.164v45.207" transform="translate(1457.402 1648.836)"/><path id="Line_108" data-name="Line 108" class="cls-1" transform="translate(1517.089 1709.39)" d="M0 0v17.293"/><path id="Path_497" data-name="Path 497" class="cls-1" d="M88.7 72.017a19.054 19.054 0 0 0 6.935-8.69V51.3" transform="translate(1454.372 1645.977)"/><path id="Path_498" data-name="Path 498" class="cls-1" d="M21.7 51.3v12.114s6.935 17.293 32.83 17.293a42.988 42.988 0 0 0 19.049-4.038" transform="translate(1462.558 1645.977)"/><circle id="Ellipse_23" data-name="Ellipse 23" class="cls-1" cx="3.423" cy="3.423" r="3.423" transform="translate(1539.649 1730.107)"/><path id="Line_109" data-name="Line 109" class="cls-1" transform="translate(1543.072 1742.221)" d="M0 5.179V0"/><path id="Line_110" data-name="Line 110" class="cls-1" transform="translate(1536.137 1740.465)" d="M0 6.935L1.756 0"/><path id="Line_111" data-name="Line 111" class="cls-1" transform="translate(1548.251 1740.465)" d="M1.756 6.935L0 0"/></g></svg>