<svg xmlns="http://www.w3.org/2000/svg" viewBox="444.305 2644.305 101.69 101.691"><defs><style>.cls-1{fill:none;stroke:#b2985e;stroke-linecap:round;stroke-linejoin:round;stroke-miterlimit:10;stroke-width:3.391px}</style></defs><g id="Symbol_49_1" data-name="Symbol 49 – 1" transform="translate(-35 890)"><path id="Line_80" data-name="Line 80" class="cls-1" transform="translate(530.2 1781.2)" d="M0 0v15.5"/><path id="Line_81" data-name="Line 81" class="cls-1" transform="translate(530.2 1812.7)" d="M0 0v13.4"/><path id="Line_82" data-name="Line 82" class="cls-1" transform="translate(530.2 1850.1)" d="M0 0v4.2"/><circle id="Ellipse_19" data-name="Ellipse 19" class="cls-1" cx="3.4" cy="3.4" r="3.4" transform="translate(526.8 1756)"/><path id="Path_462" data-name="Path 462" class="cls-1" d="M49.2 94.9c-3.4-1.7-6.8-3.4-6.8-8.5a13.007 13.007 0 0 1 3.4-8.5l8.5-10.2S56 66 56 64.3s-1.7-3.4-1.7-3.4l-17-13.6s-8.5-6.8-8.5-15.3 5.1-13.6 8.5-15.3 17-2.5 17 5.1c0 5.1-5.1 5.1-8.5 6.8 0 0-3.4 1.7-3.4 3.4s1.7 3.4 1.7 3.4l17 17s5.1 5.1 5.1 11.9c0 5.9-5.1 10.2-5.1 10.2l-11.9 12 6.8 5.1s3.4 2.9 1.7 5.1c-1.5 1.8-5.1-.1-8.5-1.8z" transform="translate(479.3 1754.3)"/><path id="Line_83" data-name="Line 83" class="cls-1" transform="translate(530.2 1762.8)" d="M0 0v8.6"/><g id="Group_154" data-name="Group 154" transform="translate(479.3 1754.3)"><path id="Path_464" data-name="Path 464" class="cls-1" d="M46.5 66.5a4.05 4.05 0 0 1-.7-2.1 3.079 3.079 0 0 1 .3-1.3"/><path id="Path_465" data-name="Path 465" class="cls-1" d="M38.3 56.9a13.346 13.346 0 0 0-2.7 7.5c0 4.1 2.5 7.6 4.5 9.8"/><path id="Path_466" data-name="Path 466" class="cls-1" d="M64.1 47.7s8.8-7 8.8-15.5-5.1-13.6-8.5-15.2a16.3 16.3 0 0 0-5.1-1.1"/><path id="Path_467" data-name="Path 467" class="cls-1" d="M57.9 30.1a3.18 3.18 0 0 1 1.4 2.1c0 1.7-1.7 3.4-1.7 3.4l-2.2 2.5"/></g><path id="Path_468" data-name="Path 468" class="cls-1" d="M59.3 84.8s1.6.8 0 1.7" transform="translate(479.3 1754.3)"/><path id="Path_469" data-name="Path 469" class="cls-1" d="M42.4 10.2L5.1 17c-1.7.5-3.4 1.7-3.4 3.4 0 2 .5 3 1.7 5.1L11.9 39c2.8 3.5 6.8 3.4 11.9 1.7" transform="translate(479.3 1754.3)"/><path id="Line_84" data-name="Line 84" class="cls-1" transform="translate(483.9 1778.9)" d="M0 2.5L14 0"/><path id="Line_85" data-name="Line 85" class="cls-1" transform="translate(488 1787.4)" d="M0 .8L9.9 0"/><path id="Path_470" data-name="Path 470" class="cls-1" d="M59.3 10.2L96.6 17c1.7.5 3.4 1.7 3.4 3.4 0 2-.5 3-1.7 5.1L89.8 39c-2.8 3.5-6.8 3.4-11.9 1.7" transform="translate(479.3 1754.3)"/><path id="Line_86" data-name="Line 86" class="cls-1" transform="translate(562.4 1778.9)" d="M14.1 2.5L0 0"/><path id="Line_87" data-name="Line 87" class="cls-1" transform="translate(562.4 1787.4)" d="M9.9.8L0 0"/></g></svg>