<svg xmlns="http://www.w3.org/2000/svg" viewBox="178 2347 123.8 60.8"><defs><style>.cls-1{fill:none;stroke:#b2985e;stroke-linecap:round;stroke-linejoin:round;stroke-miterlimit:10;stroke-width:4px}</style></defs><g id="Symbol_42_1" data-name="Symbol 42 – 1" transform="translate(15 992)"><path id="Path_433" data-name="Path 433" class="cls-1" d="M27.3 38c1.2 5.7.4 10.8.4 12.6" transform="translate(163 1355)"/><path id="Path_434" data-name="Path 434" class="cls-1" d="M18.7 19.9h.3" transform="translate(163 1355)"/><path id="Path_435" data-name="Path 435" class="cls-1" d="M19 19.9a31.463 31.463 0 0 1 9.6.6 32.144 32.144 0 0 1 17.9 10.6c.1.2.3.3.4.5" transform="translate(163 1355)"/><path id="Path_436" data-name="Path 436" class="cls-1" d="M19 19.9A35.945 35.945 0 0 1 27.3 38a32.4 32.4 0 0 0-15.5-3.9h-1.4a32.947 32.947 0 0 0-7 1.1c-.5.1-1 .3-1.4.4.2.1.5.2.7.3a22.792 22.792 0 0 1 6 3.6 20.29 20.29 0 0 1 6.9 11.1" transform="translate(163 1355)"/><path id="Path_437" data-name="Path 437" class="cls-1" d="M92.6 50.6a16.983 16.983 0 0 0-2.9-7.1 16.683 16.683 0 0 0-3.8-3.7c-.2-.1-.3-.2-.5-.3a4.1 4.1 0 0 0 1.1-.1 24.358 24.358 0 0 1 5.3.5c.3.1.7.1 1 .2a21.561 21.561 0 0 1 6.1 2.4l-1.1.9c.4-.3.7-.6 1.1-.9a33.2 33.2 0 0 1 13-6.5c.5-.1.9-.2 1.4-.3a28.025 28.025 0 0 1 7-.6 7.569 7.569 0 0 1 1.5.1c-.2.1-.4.3-.6.4a23.237 23.237 0 0 0-5 4.9 21.743 21.743 0 0 0-4 10.1H92.6z" transform="translate(163 1355)"/><path id="Path_438" data-name="Path 438" class="cls-1" d="M93.8 40.4a59.13 59.13 0 0 1 8.8-14.7" transform="translate(163 1355)"/><path id="Path_439" data-name="Path 439" class="cls-1" d="M49 50.6A93.393 93.393 0 0 0 35.5 2 48.622 48.622 0 0 1 81 50.6" transform="translate(163 1355)"/><path id="Path_440" data-name="Path 440" class="cls-1" d="M49 50.6A93.393 93.393 0 0 0 35.5 2 48.622 48.622 0 0 1 81 50.6" transform="translate(163 1355)"/><path id="Path_441" data-name="Path 441" d="M281.5 1412.8a.945.945 0 0 1-1 1H168.7a.945.945 0 0 1-1-1v-6.3a.945.945 0 0 1 1-1h111.8a.945.945 0 0 1 1 1v6.3z" fill="#efeadf" stroke="#b2985e" stroke-linecap="round" stroke-linejoin="round" stroke-miterlimit="10" stroke-width="4"/><path id="Path_442" data-name="Path 442" class="cls-1" d="M102.6 25.7a36.574 36.574 0 0 0-8.8-1.1A37.038 37.038 0 0 0 76 29.1" transform="translate(163 1355)"/></g></svg>