<svg xmlns="http://www.w3.org/2000/svg" viewBox="1219 2335 102.6 66.1"><defs><style>.cls-1{fill:none;stroke:#b2985e;stroke-linecap:round;stroke-linejoin:round;stroke-miterlimit:10;stroke-width:4px}</style></defs><g id="Symbol_46_1" data-name="Symbol 46 – 1" transform="translate(248 1088)"><path id="Path_452" data-name="Path 452" class="cls-1" d="M91.4 22.3L81.7 2H20.9l-9.7 20.3" transform="translate(971 1247)"/><path id="Line_76" data-name="Line 76" class="cls-1" transform="translate(1060 1260)" d="M0 0h9.6"/><path id="Path_453" data-name="Path 453" class="cls-1" d="M75.8 55.2v7.4a1.367 1.367 0 0 0 1.4 1.4h20.1a1.367 1.367 0 0 0 1.4-1.4V52.4" transform="translate(971 1247)"/><path id="Path_454" data-name="Path 454" class="cls-1" d="M4 52.5v10.2a1.367 1.367 0 0 0 1.4 1.4h20.1a1.367 1.367 0 0 0 1.4-1.4v-7.4" transform="translate(971 1247)"/><path id="Path_455" data-name="Path 455" class="cls-1" d="M100.6 47.6a7.127 7.127 0 0 1-7.1 7.1L51.3 56 9.1 54.7A7.127 7.127 0 0 1 2 47.6l2.4-20.2c.6-4.2 3.2-7.1 7.1-7.1h79.7c3.9 0 6.6 3.3 7.1 7.1z" transform="translate(971 1247)"/><path id="Path_456" data-name="Path 456" class="cls-1" d="M9.7 29.4v11.3L51.3 43 93 40.7V29.4l-41.7 2.4z" transform="translate(971 1247)"/><path id="Line_77" data-name="Line 77" class="cls-1" transform="translate(975 1260)" d="M9.6 0H0"/><path id="Line_78" data-name="Line 78" class="cls-1" transform="translate(992 1277.1)" d="M0 0v11.2"/><path id="Line_79" data-name="Line 79" class="cls-1" transform="translate(1052.6 1277.7)" d="M0 0v10.6"/></g></svg>