<svg xmlns="http://www.w3.org/2000/svg" viewBox="1741 2638 103 103"><defs><style>.cls-1{fill:none;stroke:#b2985e;stroke-linecap:round;stroke-linejoin:round;stroke-miterlimit:10;stroke-width:4px}</style></defs><g id="Symbol_54_1" data-name="Symbol 54 – 1" transform="translate(260 1019)"><path id="Path_499" data-name="Path 499" class="cls-1" d="M34.5 29.3H8.8A6.807 6.807 0 0 0 2 36.1v58.1a6.807 6.807 0 0 0 6.8 6.8h85.4a6.807 6.807 0 0 0 6.8-6.8v-58a6.807 6.807 0 0 0-6.8-6.8h-29" transform="translate(1481 1619)"/><path id="Rectangle_59" data-name="Rectangle 59" class="cls-1" transform="translate(1524 1621)" d="M0 0h17.1v34.2H0z"/><path id="Path_500" data-name="Path 500" class="cls-1" d="M66.9 36.2h3.4a3.4 3.4 0 1 1 0 6.8H32.8a3.4 3.4 0 0 1 0-6.8h3.4" transform="translate(1481 1619)"/><circle id="Ellipse_24" data-name="Ellipse 24" class="cls-1" cx="1.7" cy="1.7" r="1.7" transform="translate(1530.9 1627.8)"/><path id="Line_112" data-name="Line 112" class="cls-1" transform="translate(1534.3 1679.1)" d="M23.9 0H0"/><path id="Line_113" data-name="Line 113" class="cls-1" transform="translate(1558.2 1692.8)" d="M10.2 0H0"/><path id="Line_114" data-name="Line 114" class="cls-1" transform="translate(1534.3 1692.8)" d="M17 0H0"/><path id="Line_115" data-name="Line 115" class="cls-1" transform="translate(1547.9 1703)" d="M17.1 0H0"/><path id="Line_116" data-name="Line 116" class="cls-1" transform="translate(1534.3 1703)" d="M6.8 0H0"/><path id="Path_501" data-name="Path 501" class="cls-1" d="M41.3 66.9v-1.7a8.493 8.493 0 0 0-8.5-8.5H26a8.493 8.493 0 0 0-8.5 8.5v1.7a1.752 1.752 0 0 0-1.7 1.7V72a1.752 1.752 0 0 0 1.7 1.7 17.584 17.584 0 0 0 1.7 6.8c1.7 3.4 3.6 6.8 10.3 6.8 6.6 0 8.5-3.4 10.3-6.8a17.584 17.584 0 0 0 1.7-6.8 1.752 1.752 0 0 0 1.7-1.7v-3.4a2.117 2.117 0 0 0-1.9-1.7z" transform="translate(1481 1619)"/><path id="Line_117" data-name="Line 117" class="cls-1" transform="translate(1513.8 1689.3)" d="M1.7 0H0"/><path id="Line_118" data-name="Line 118" class="cls-1" transform="translate(1505.2 1689.3)" d="M1.7 0H0"/></g></svg>