<svg xmlns="http://www.w3.org/2000/svg" viewBox="188 2655 104.3 79.5"><defs><style>.cls-1{fill:#b2985e}</style></defs><g id="Symbol_48_1" data-name="Symbol 48 – 1" transform="translate(15 982)"><path id="Path_460" data-name="Path 460" class="cls-1" d="M94 12.4H71.6V5.1A5.092 5.092 0 0 0 66.3 0H38a5.2 5.2 0 0 0-5.4 5.2v7.2h-22C2.8 12.4 0 18.7 0 23v45.9c0 7.8 6.4 10.6 10.7 10.6H94c7.5 0 10.3-6.2 10.3-10.3V22.6c-.1-7.5-6.2-10.2-10.3-10.2zm-56-7h28.2v6.9H38zm60.9 63.8a4.664 4.664 0 0 1-4.9 4.9H10.7c-.9 0-5.3-.3-5.3-5.2v-46a4.946 4.946 0 0 1 5.3-5.2H94a4.6 4.6 0 0 1 4.9 4.9v25.3z" transform="translate(173 1673)"/><path id="Path_461" data-name="Path 461" class="cls-1" d="M64.2 44.3h-9.6v-9.6h-4.9v9.6H40v5h9.7v9.6h4.9v-9.6h9.6z" transform="translate(173 1673)"/></g></svg>