<svg xmlns="http://www.w3.org/2000/svg" viewBox="697 2328 119.7 80.698"><defs><style>.cls-1{fill:none;stroke:#b2985e;stroke-linecap:round;stroke-linejoin:round;stroke-miterlimit:10;stroke-width:4px}</style></defs><g id="Symbol_44_1" data-name="Symbol 44 – 1" transform="translate(-266 1088)"><path id="Line_49" data-name="Line 49" class="cls-1" transform="translate(1022.8 1242)" d="M0 5.8V0"/><path id="Path_446" data-name="Path 446" class="cls-1" d="M40.4 71.7V46.2h38.9v25.5" transform="translate(963 1240)"/><path id="Line_50" data-name="Line 50" class="cls-1" transform="translate(1009.8 1295.5)" d="M0 0v9.2"/><path id="Line_51" data-name="Line 51" class="cls-1" transform="translate(980.2 1299)" d="M0 0v3"/><path id="Line_52" data-name="Line 52" class="cls-1" transform="translate(987.5 1299)" d="M0 0v3"/><path id="Line_53" data-name="Line 53" class="cls-1" transform="translate(973 1299)" d="M0 0v3"/><path id="Line_54" data-name="Line 54" class="cls-1" transform="translate(994.7 1299)" d="M0 0v3"/><path id="Line_55" data-name="Line 55" class="cls-1" transform="translate(1018.6 1295.5)" d="M0 0v9.2"/><path id="Line_56" data-name="Line 56" class="cls-1" transform="translate(1027.5 1295.5)" d="M0 0v9.2"/><path id="Line_57" data-name="Line 57" class="cls-1" transform="translate(1036.3 1295.5)" d="M0 0v9.2"/><path id="Line_58" data-name="Line 58" class="cls-1" transform="translate(998.8 1311.7)" d="M4.6 0L0 6.2"/><path id="Line_59" data-name="Line 59" class="cls-1" transform="translate(1042.3 1311.7)" d="M0 0l4.6 6.2"/><path id="Line_60" data-name="Line 60" class="cls-1" transform="translate(1009.8 1311.7)" d="M0 0h26.5"/><path id="Path_447" data-name="Path 447" class="cls-1" d="M74.8 34.4h-1.9v-2.1c0-8.3-5.8-16.9-13-16.9s-13 8.7-13 16.9v2.1H45v11.8h29.9V34.4z" transform="translate(963 1240)"/><path id="Path_448" data-name="Path 448" class="cls-1" d="M40.4 51.5H2v26.4h33.8" transform="translate(963 1240)"/><path id="Line_61" data-name="Line 61" class="cls-1" transform="translate(1065.5 1299)" d="M0 0v3"/><path id="Line_62" data-name="Line 62" class="cls-1" transform="translate(1058.2 1299)" d="M0 0v3"/><path id="Line_63" data-name="Line 63" class="cls-1" transform="translate(1072.7 1299)" d="M0 0v3"/><path id="Line_64" data-name="Line 64" class="cls-1" transform="translate(1051 1299)" d="M0 0v3"/><path id="Path_449" data-name="Path 449" class="cls-1" d="M79.3 51.5h38.4v26.4H83.9" transform="translate(963 1240)"/><path id="Line_65" data-name="Line 65" class="cls-1" transform="translate(998.8 1317.9)" d="M0 0h48.1"/><path id="Line_66" data-name="Line 66" class="cls-1" transform="translate(1013.8 1278.2)" d="M0 0v3.2"/><path id="Line_67" data-name="Line 67" class="cls-1" transform="translate(1019.6 1278.2)" d="M0 0v3.2"/><path id="Line_68" data-name="Line 68" class="cls-1" transform="translate(1025.5 1278.2)" d="M0 0v3.2"/><path id="Line_69" data-name="Line 69" class="cls-1" transform="translate(1031.3 1278.2)" d="M0 0v3.2"/><path id="Rectangle_56" data-name="Rectangle 56" class="cls-1" transform="translate(1020 1249.8)" d="M0 0h5.6v5.6H0z"/></g></svg>