<svg xmlns="http://www.w3.org/2000/svg" viewBox="1496.152 2340 81.997 62.5"><g data-name="Symbol 47 – 1"><path data-name="Path 457" d="M1570.052 2349.748h-17.611v-5.739a4 4 0 0 0-4.166-4.009h-22.249a4.091 4.091 0 0 0-4.245 4.088v5.66h-17.296c-6.133 0-8.333 4.952-8.333 8.334v36.085c0 6.133 5.031 8.333 8.412 8.333h65.488a7.916 7.916 0 0 0 8.1-8.1v-36.633a7.888 7.888 0 0 0-8.1-8.019zm-44.025-5.5h22.17v5.422h-22.171zm-25.63 13.834a3.889 3.889 0 0 1 4.167-4.088h65.488a3.617 3.617 0 0 1 3.852 3.852v8.333c0 4.953-2.2 10.692-8.491 10.692h-19.89c-.629-3.774-2.987-4.638-4.953-4.638h-6.918c-1.965 0-4.324.865-4.953 4.638h-18.632c-6.053 0-9.67-5.425-9.67-10.692v-8.097zm40.173 23.27h-6.918c-.472 0-.865 0-.865-2.516s.472-2.516.865-2.516h6.918c.472 0 .865 0 .865 2.516s-.393 2.516-.865 2.516zm29.482 16.903h-65.488a3.918 3.918 0 0 1-4.167-4.088v-17.3a13.245 13.245 0 0 0 9.67 4.088h18.632c.629 3.774 2.987 4.638 4.953 4.638h6.918c1.965 0 4.324-.865 4.953-4.638h19.89a11.605 11.605 0 0 0 8.491-3.3v16.745a3.666 3.666 0 0 1-3.852 3.855z" fill="#b2985e"/></g></svg>