<svg xmlns="http://www.w3.org/2000/svg" viewBox="956 2324 119.3 88.8"><defs><style>.cls-1{fill:none;stroke:#b2985e;stroke-linecap:round;stroke-linejoin:round;stroke-miterlimit:10;stroke-width:4px}</style></defs><g id="Symbol_45_1" data-name="Symbol 45 – 1" transform="translate(-7 1089)"><g id="Group_153" data-name="Group 153" transform="translate(963 1235)"><circle id="Ellipse_16" data-name="Ellipse 16" class="cls-1" cx="6.1" cy="6.1" r="6.1" transform="translate(24.3 31.6)"/><circle id="Ellipse_17" data-name="Ellipse 17" class="cls-1" cx="4.5" cy="4.5" r="4.5" transform="translate(55.1 32.6)"/><path id="Line_70" data-name="Line 70" class="cls-1" transform="translate(59.6 2)" d="M0 11.9V0"/><path id="Line_71" data-name="Line 71" class="cls-1" transform="translate(2 31.6)" d="M40.4 0H0"/><path id="Line_72" data-name="Line 72" class="cls-1" transform="translate(40.5 16.6)" d="M9.7 0H0"/><circle id="Ellipse_18" data-name="Ellipse 18" class="cls-1" cx="6.1" cy="6.1" r="6.1" transform="translate(82.8 31.6)"/><path id="Line_73" data-name="Line 73" class="cls-1" transform="translate(76.9 31.6)" d="M0 0h40.4"/><path id="Line_74" data-name="Line 74" class="cls-1" transform="translate(69.1 16.6)" d="M0 0h9.6"/><path id="Path_450" data-name="Path 450" class="cls-1" d="M76 34.6a16.65 16.65 0 0 1-16.4 16.9 16.65 16.65 0 0 1-16.4-16.9v-3.9a16.65 16.65 0 0 1 16.4-16.9A16.65 16.65 0 0 1 76 30.7z"/><path id="Line_75" data-name="Line 75" class="cls-1" transform="translate(51.5 23.6)" d="M0 0h16.3"/></g><path id="Path_451" data-name="Path 451" class="cls-1" d="M13.2 81.6a13.484 13.484 0 0 1 9.1-3.6 13.79 13.79 0 0 1 6.4 1.6L27 86.8c.4-9.3 8.6-16.7 18.8-16.7s18.4 7.4 18.8 16.7l-.5-3.4a12.853 12.853 0 0 1 6.5-1.7 13.585 13.585 0 0 1 7.9 2.6l-1.7 2.5a18.88 18.88 0 0 1 16.4-9.6 18.081 18.081 0 0 1 11.4 3.9" transform="translate(963 1235)"/></g></svg>