<svg xmlns="http://www.w3.org/2000/svg" viewBox="451 2308 102.5 100"><defs><style>.cls-1{fill:none;stroke:#b2985e;stroke-linecap:round;stroke-linejoin:round;stroke-miterlimit:10;stroke-width:4px}</style></defs><g id="Symbol_43_1" data-name="Symbol 43 – 1" transform="translate(-520 1078)"><circle id="Ellipse_15" data-name="Ellipse 15" class="cls-1" cx="9.1" cy="9.1" r="9.1" transform="translate(1051.7 1232)"/><g id="Group_152" data-name="Group 152" transform="translate(971 1230)"><path id="Path_443" data-name="Path 443" class="cls-1" d="M45.9 29.4c-10.6 19-25.8 39-43.9 50.9V98h87.9V80.3c-18.3-11.8-33.4-31.9-44-50.9"/><path id="Line_48" data-name="Line 48" class="cls-1" transform="translate(45.9 29.4)" d="M0 0v68.6"/><path id="Path_444" data-name="Path 444" class="cls-1" d="M45.9 29.4A124.955 124.955 0 0 0 66.4 98l10.7-17.8a56.826 56.826 0 0 1-31.2-50.8z"/></g><path id="Path_445" data-name="Path 445" d="M1068 1245.7h-13.5v-.2a3.543 3.543 0 0 0-3.5-3.5h-21.5a3.5 3.5 0 0 0 0 7h13.5v.2a3.543 3.543 0 0 0 3.5 3.5h21.5a3.5 3.5 0 0 0 0-7z" fill="#efeadf" stroke="#b2985e" stroke-linecap="round" stroke-linejoin="round" stroke-miterlimit="10" stroke-width="4"/></g></svg>