<svg xmlns="http://www.w3.org/2000/svg" viewBox="871.545 224.677 193.91 181.647"><defs><style>.cls-1{fill:#fff}</style></defs><g id="Symbol_1_1" data-name="Symbol 1 – 1" transform="translate(15.143 -229.893)"><g id="Group_85" data-name="Group 85" transform="translate(856.402 454.67)"><g id="Group_85-2" data-name="Group 85" transform="translate(50.968 170.587)"><path id="Path_266" data-name="Path 266" class="cls-1" d="M66.5 225.206h3.142v8.354h3.219v-8.354h3.219V222.6H66.5z" transform="translate(-66.5 -222.6)"/><path id="Path_267" data-name="Path 267" class="cls-1" d="M97.2 228.6a4.563 4.563 0 0 0 .46-2.069 3.31 3.31 0 0 0-1.226-2.836 4.926 4.926 0 0 0-3.372-1H88v10.883h3.219v-2.989h1.686l1.456 2.912h3.679l-2.223-3.526A3.008 3.008 0 0 0 97.2 228.6zm-2.989-.843a1.586 1.586 0 0 1-1.15.383h-1.842v-2.989h1.839a1.883 1.883 0 0 1 1.15.383 1.245 1.245 0 0 1 .383 1.073 1.505 1.505 0 0 1-.383 1.152z" transform="translate(-71.521 -222.623)"/><path id="Path_268" data-name="Path 268" class="cls-1" d="M113.675 222.6L109 233.483h3.3l.69-1.763h4.369l.613 1.763h3.449l-4.527-10.883zm.23 6.821l1.3-3.526 1.3 3.526z" transform="translate(-76.426 -222.6)"/><path id="Path_269" data-name="Path 269" class="cls-1" d="M137.6 230.188l-2.453-7.588H131.7l4.139 10.96h3.372l4.215-10.96h-3.3z" transform="translate(-81.728 -222.6)"/><path id="Path_270" data-name="Path 270" class="cls-1" d="M159.019 229.345h5.135v-2.529h-5.135v-1.686h5.672v-2.53H155.8v10.96h9.044v-2.529h-5.825z" transform="translate(-87.357 -222.6)"/><path id="Path_271" data-name="Path 271" class="cls-1" d="M180.619 222.6H177.4v10.96h7.818v-2.76h-4.6z" transform="translate(-92.402 -222.6)"/></g><g id="Group_86" data-name="Group 86" transform="translate(0 127.283)"><path id="Path_272" data-name="Path 272" class="cls-1" d="M24.6 166.2v6.515h-3.446l-.307-3.372h-6.591v23.3l3.3.536v2.529H6.975v-2.529l3.3-.536v-23.3H3.756l-.307 3.372H0V166.2z" transform="translate(0 -166.123)"/><path id="Path_273" data-name="Path 273" class="cls-1" d="M47.953 166.2c3.219 0 5.672.69 7.434 2.146a7.593 7.593 0 0 1 2.606 6.055 6.188 6.188 0 0 1-1.226 3.832 7.645 7.645 0 0 1-3.449 2.606 5.829 5.829 0 0 1 3.449 2.606 8.873 8.873 0 0 1 1.073 4.445v2.376a3.389 3.389 0 0 0 .383 1.993 1.393 1.393 0 0 0 1.15.766l1 .153v2.606h-2.15a3.52 3.52 0 0 1-3.3-1.61 7.065 7.065 0 0 1-1-3.909v-2.3a5.535 5.535 0 0 0-1.38-3.909A4.909 4.909 0 0 0 48.8 182.6h-6.442v10.117l3.3.537v2.529H35v-2.529l3.3-.537v-23.3l-3.3-.537v-2.529h12.953zm-5.672 13.259h5.289a7.816 7.816 0 0 0 4.905-1.3 4.63 4.63 0 0 0 1.533-3.756 4.739 4.739 0 0 0-1.456-3.679 6.386 6.386 0 0 0-4.522-1.38h-5.672v10.117z" transform="translate(-8.175 -166.123)"/><path id="Path_274" data-name="Path 274" class="cls-1" d="M71.7 168.806V166.2h10.654v2.606l-3.3.536v23.3l3.3.536v2.529H71.7v-2.529l3.3-.536v-23.3z" transform="translate(-16.746 -166.123)"/><path id="Path_275" data-name="Path 275" class="cls-1" d="M99.654 166.177v2.606l-3.3.536v16.938a6.37 6.37 0 0 0 1.916 5.059 7.385 7.385 0 0 0 5.059 1.763 7.724 7.724 0 0 0 5.288-1.763c1.38-1.15 1.993-2.836 1.993-5.135v-16.939l-3.3-.537V166.1h10.577v2.606l-3.3.537v16.938a8.963 8.963 0 0 1-3.142 7.358 12.659 12.659 0 0 1-8.2 2.606 11.414 11.414 0 0 1-7.894-2.606 9.362 9.362 0 0 1-3.066-7.358v-16.939l-3.3-.537V166.1h10.669z" transform="translate(-20.787 -166.1)"/><path id="Path_276" data-name="Path 276" class="cls-1" d="M159.072 172.125h-.077l-9.581 23.76h-2.683l-9.58-23.685h-.077l.383 11.957v8.584l3.3.536v2.529H130.1v-2.529l3.3-.536v-23.3l-3.3-.536V166.3h8.431l9.427 24.066h.153l9.427-24.066h8.431v2.606l-3.3.536v23.3l3.3.536v2.529h-10.653v-2.529l3.3-.536v-8.584z" transform="translate(-30.386 -166.147)"/><path id="Path_277" data-name="Path 277" class="cls-1" d="M194.243 166.2a10.525 10.525 0 0 1 7.358 2.453 9.256 9.256 0 0 1 0 12.876 10.525 10.525 0 0 1-7.358 2.453h-6.285v8.737l3.3.537v2.529H180.6v-2.529l3.3-.537v-23.3l-3.3-.537v-2.606h13.643zm-6.285 14.562h6.285a5.919 5.919 0 0 0 4.522-1.61 5.753 5.753 0 0 0 1.456-4.062 6.077 6.077 0 0 0-1.456-4.139c-1-1.15-2.529-1.61-4.522-1.61h-6.285z" transform="translate(-42.18 -166.123)"/><path id="Path_278" data-name="Path 278" class="cls-1" d="M215.177 168.806V166.2h10.653v2.606l-3.3.536v10.194h14.332v-10.194l-3.3-.536V166.2h10.577v2.606l-3.3.536v23.3l3.3.536v2.529h-10.644v-2.529l3.3-.536v-9.964h-14.337v9.964l3.3.536v2.529H215.1v-2.529l3.3-.536v-23.3z" transform="translate(-50.238 -166.123)"/></g><g id="Group_116" data-name="Group 116" transform="translate(40.851 -.1)"><g id="Group_114" data-name="Group 114" transform="translate(0 21.23)"><g id="Group_87" data-name="Group 87" transform="translate(7.415 4.752)"><path id="Path_279" data-name="Path 279" class="cls-1" d="M108.214 117.036a42.564 42.564 0 0 0-8.584-2.146c-13.336-2.99-29.738-15.866-34.107-34.337-4.982-18.011 2.683-37.019 12.877-46.37a2.032 2.032 0 0 1-.46-.383c-10.347 9.351-18.395 28.665-13.49 47.06 4.292 18.931 21 32.421 34.8 35.64 14.179 2.376 20.234 9.81 20.234 9.81l1.763-1.61s-3.606-4.292-13.033-7.664z" transform="translate(-62.975 -33.8)"/></g><g id="Group_88" data-name="Group 88" transform="translate(47.213 4.311)"><path id="Path_280" data-name="Path 280" class="cls-1" d="M157.744 33.282c0-.077-.077-.077 0 0a2.032 2.032 0 0 1-.383.46c10.424 9.2 18.318 28.512 13.259 46.753-4.369 18.395-20.694 31.347-34.107 34.337a42.564 42.564 0 0 0-8.584 2.146c-9.427 3.372-13.03 7.664-13.03 7.664l1.763 1.61s6.055-7.434 20.234-9.81c13.8-3.219 30.5-16.708 34.8-35.64 5.056-18.778-3.296-38.402-13.952-47.52z" transform="translate(-114.9 -33.225)"/></g><g id="Group_113" data-name="Group 113"><g id="Group_89" data-name="Group 89" transform="translate(32.804 75.725)"><path id="Path_281" data-name="Path 281" class="cls-1" d="M104.83 126.4s3.832 1.3 5.135 4.445a12.875 12.875 0 0 1 .92 7.051s-3.909-1.993-5.135-4.139c-1.84-2.912-.92-7.357-.92-7.357z" transform="translate(-98.085 -126.4)"/><path id="Path_282" data-name="Path 282" class="cls-1" d="M96.1 146.687s3.909 1.226 6.745-.537a13.155 13.155 0 0 0 4.905-5.212s-4.292-.613-6.591.307c-3.22 1.304-5.059 5.442-5.059 5.442z" transform="translate(-96.1 -129.749)"/></g><g id="Group_90" data-name="Group 90" transform="translate(24.143 72.429)"><path id="Path_283" data-name="Path 283" class="cls-1" d="M96.833 122.1s3.526 1.916 4.215 5.135a12.483 12.483 0 0 1-.307 6.975s-3.372-2.606-4.292-4.829c-1.303-3.142.384-7.281.384-7.281z" transform="translate(-87.405 -122.1)"/><path id="Path_284" data-name="Path 284" class="cls-1" d="M84.8 140.531s3.6 1.839 6.591.613a12.229 12.229 0 0 0 5.6-4.139s-4.062-1.38-6.438-.843c-3.224.69-5.753 4.369-5.753 4.369z" transform="translate(-84.8 -125.355)"/></g><g id="Group_91" data-name="Group 91" transform="translate(16.479 68.137)"><path id="Path_285" data-name="Path 285" class="cls-1" d="M89.47 116.5s3.066 2.453 3.219 5.672a12.583 12.583 0 0 1-1.533 6.668s-2.836-3.066-3.3-5.365c-.685-3.296 1.614-6.975 1.614-6.975z" transform="translate(-77.82 -116.5)"/><path id="Path_286" data-name="Path 286" class="cls-1" d="M74.8 132.518s3.142 2.376 6.285 1.763a12.425 12.425 0 0 0 6.132-3.066s-3.679-1.993-6.055-1.916c-3.296.077-6.362 3.219-6.362 3.219z" transform="translate(-74.8 -119.489)"/></g><g id="Group_92" data-name="Group 92" transform="translate(10.117 62.848)"><path id="Path_287" data-name="Path 287" class="cls-1" d="M83.257 109.6s2.529 2.912 2.146 6.055a12.438 12.438 0 0 1-2.606 6.208s-2.223-3.449-2.3-5.748c-.152-3.296 2.76-6.515 2.76-6.515z" transform="translate(-69.768 -109.6)"/><path id="Path_288" data-name="Path 288" class="cls-1" d="M66.5 122.852s2.606 2.836 5.748 2.759a12.162 12.162 0 0 0 6.438-1.916s-3.219-2.529-5.518-2.912c-3.219-.46-6.668 2.069-6.668 2.069z" transform="translate(-66.5 -112.199)"/></g><g id="Group_93" data-name="Group 93" transform="translate(5.135 56.947)"><path id="Path_289" data-name="Path 289" class="cls-1" d="M78.143 101.9s1.916 3.219 1 6.132a11.836 11.836 0 0 1-3.526 5.518s-1.533-3.679-1.226-5.978c.457-3.066 3.752-5.672 3.752-5.672z" transform="translate(-63.351 -101.9)"/><path id="Path_290" data-name="Path 290" class="cls-1" d="M60 111.953s2.069 3.142 5.059 3.6a11.384 11.384 0 0 0 6.515-.766s-2.683-2.989-4.829-3.679c-2.989-.995-6.745.845-6.745.845z" transform="translate(-60 -103.982)"/></g><g id="Group_94" data-name="Group 94" transform="translate(1.763 50.509)"><path id="Path_291" data-name="Path 291" class="cls-1" d="M74.516 93.5s1.3 3.449-.077 6.132a11.8 11.8 0 0 1-4.369 4.752s-.843-3.832-.153-5.978c.997-2.99 4.599-4.906 4.599-4.906z" transform="translate(-58.881 -93.5)"/><path id="Path_292" data-name="Path 292" class="cls-1" d="M55.6 100.069s1.456 3.372 4.292 4.369a11.5 11.5 0 0 0 6.438.383s-2.069-3.372-3.985-4.445c-2.76-1.457-6.745-.307-6.745-.307z" transform="translate(-55.6 -94.934)"/></g><g id="Group_95" data-name="Group 95" transform="translate(.077 43.764)"><path id="Path_293" data-name="Path 293" class="cls-1" d="M72.329 84.7s.69 3.526-1.073 5.9a11.581 11.581 0 0 1-5.056 3.834s-.153-3.832.843-5.748c1.457-2.76 5.286-3.986 5.286-3.986z" transform="translate(-56.387 -84.7)"/><path id="Path_294" data-name="Path 294" class="cls-1" d="M53.4 87.69s.843 3.526 3.372 4.982a11.471 11.471 0 0 0 6.128 1.457s-1.38-3.6-3.142-4.905C57.385 87.307 53.4 87.69 53.4 87.69z" transform="translate(-53.4 -85.391)"/></g><g id="Group_96" data-name="Group 96" transform="translate(0 36.329)"><path id="Path_295" data-name="Path 295" class="cls-1" d="M71.688 75.7s.077 3.526-2.069 5.518a11.274 11.274 0 0 1-5.519 2.836s.46-3.756 1.839-5.442c1.84-2.375 5.749-2.912 5.749-2.912z" transform="translate(-55.822 -75.163)"/><path id="Path_296" data-name="Path 296" class="cls-1" d="M53.3 75s.153 3.526 2.453 5.365a11.672 11.672 0 0 0 5.672 2.453s-.766-3.679-2.146-5.288C57.285 75.307 53.3 75 53.3 75z" transform="translate(-53.3 -75)"/></g><g id="Group_97" data-name="Group 97" transform="translate(1.638 26.596)"><path id="Path_297" data-name="Path 297" class="cls-1" d="M72.637 66.4s-.537 3.449-2.912 4.982a11.288 11.288 0 0 1-5.825 1.839s1.15-3.526 2.683-4.905c2.146-1.993 6.054-1.916 6.054-1.916z" transform="translate(-57.413 -63.257)"/><path id="Path_298" data-name="Path 298" class="cls-1" d="M55.485 62.3s-.46 3.449 1.456 5.6A11.263 11.263 0 0 0 62 71.267s-.077-3.679-1.226-5.518c-1.533-2.529-5.289-3.449-5.289-3.449z" transform="translate(-55.437 -62.3)"/></g><g id="Group_98" data-name="Group 98" transform="translate(4.649 17.168)"><path id="Path_299" data-name="Path 299" class="cls-1" d="M75.281 57.342s-1.073 3.219-3.679 4.292a11.276 11.276 0 0 1-5.9.766s1.686-3.219 3.449-4.292c2.374-1.533 6.13-.766 6.13-.766z" transform="translate(-60.845 -51.67)"/><path id="Path_300" data-name="Path 300" class="cls-1" d="M59.7 50s-1 3.3.46 5.672a10.709 10.709 0 0 0 4.292 4.062s.537-3.6-.23-5.518C63.148 51.61 59.7 50 59.7 50z" transform="translate(-59.366 -50)"/></g><g id="Group_99" data-name="Group 99" transform="translate(8.937 8.584)"><path id="Path_301" data-name="Path 301" class="cls-1" d="M79.517 48.773s-1.61 2.912-4.292 3.526a10.221 10.221 0 0 1-5.825-.307s2.146-2.836 4.062-3.6c2.606-.999 6.055.381 6.055.381z" transform="translate(-65.998 -40.955)"/><path id="Path_302" data-name="Path 302" class="cls-1" d="M65.834 38.8s-1.534 2.989-.534 5.518a10.776 10.776 0 0 0 3.449 4.675s1.15-3.372.69-5.365c-.539-2.759-3.605-4.828-3.605-4.828z" transform="translate(-64.961 -38.8)"/></g><g id="Group_100" data-name="Group 100" transform="translate(14.547 .996)"><path id="Path_303" data-name="Path 303" class="cls-1" d="M85.347 41.166S83.278 43.7 80.6 43.849a10.492 10.492 0 0 1-5.6-1.227s2.606-2.376 4.522-2.759c2.759-.613 5.825 1.303 5.825 1.303z" transform="translate(-72.916 -31.432)"/><path id="Path_304" data-name="Path 304" class="cls-1" d="M73.828 28.9s-1.993 2.606-1.456 5.212a10.888 10.888 0 0 0 2.528 5.135s1.686-3.066 1.61-5.059c.001-2.759-2.682-5.288-2.682-5.288z" transform="translate(-72.28 -28.9)"/></g><path id="Path_305" data-name="Path 305" class="cls-1" d="M80.2 34.5s3.219.077 5.059-1.839a10.636 10.636 0 0 0 2.605-5.061s-3.449.46-4.982 1.61C80.737 30.972 80.2 34.5 80.2 34.5z" transform="translate(-59.583 -27.6)"/><g id="Group_101" data-name="Group 101" transform="translate(67.223 75.725)"><path id="Path_306" data-name="Path 306" class="cls-1" d="M147.21 126.4s-3.832 1.3-5.135 4.445a12.875 12.875 0 0 0-.92 7.051s3.909-1.993 5.135-4.139c1.84-2.912.92-7.357.92-7.357z" transform="translate(-141.008 -126.4)"/><path id="Path_307" data-name="Path 307" class="cls-1" d="M154.35 146.687s-3.909 1.226-6.745-.537a13.154 13.154 0 0 1-4.905-5.212s4.292-.613 6.591.307c3.219 1.304 5.059 5.442 5.059 5.442z" transform="translate(-141.403 -129.749)"/></g><g id="Group_102" data-name="Group 102" transform="translate(74.846 72.429)"><path id="Path_308" data-name="Path 308" class="cls-1" d="M155.511 122.1s-3.526 1.916-4.215 5.135a12.483 12.483 0 0 0 .307 6.975s3.372-2.606 4.292-4.829c1.305-3.142-.384-7.281-.384-7.281z" transform="translate(-150.954 -122.1)"/><path id="Path_309" data-name="Path 309" class="cls-1" d="M165.486 140.531s-3.6 1.839-6.591.613a12.229 12.229 0 0 1-5.6-4.139s4.062-1.38 6.438-.843c3.301.69 5.753 4.369 5.753 4.369z" transform="translate(-151.502 -125.355)"/></g><g id="Group_103" data-name="Group 103" transform="translate(81.616 68.137)"><path id="Path_310" data-name="Path 310" class="cls-1" d="M163.016 116.5s-3.066 2.453-3.219 5.672a12.583 12.583 0 0 0 1.533 6.668s2.836-3.066 3.3-5.365c.685-3.296-1.614-6.975-1.614-6.975z" transform="translate(-159.787 -116.5)"/><path id="Path_311" data-name="Path 311" class="cls-1" d="M175.416 132.518s-3.142 2.376-6.285 1.763a12.425 12.425 0 0 1-6.131-3.066s3.679-1.993 6.055-1.916c3.372.077 6.361 3.219 6.361 3.219z" transform="translate(-160.538 -119.489)"/></g><g id="Group_104" data-name="Group 104" transform="translate(87.258 62.848)"><path id="Path_312" data-name="Path 312" class="cls-1" d="M169.334 109.6s-2.529 2.912-2.146 6.055a12.439 12.439 0 0 0 2.606 6.208s2.223-3.449 2.3-5.748c.076-3.296-2.76-6.515-2.76-6.515z" transform="translate(-167.148 -109.6)"/><path id="Path_313" data-name="Path 313" class="cls-1" d="M183.886 122.852s-2.606 2.836-5.748 2.759a12.162 12.162 0 0 1-6.438-1.911s3.219-2.529 5.518-2.912c3.143-.465 6.668 2.064 6.668 2.064z" transform="translate(-168.211 -112.199)"/></g><g id="Group_105" data-name="Group 105" transform="translate(91.8 56.947)"><path id="Path_314" data-name="Path 314" class="cls-1" d="M174.32 101.9s-1.916 3.219-1 6.132a11.836 11.836 0 0 0 3.526 5.518s1.533-3.679 1.226-5.978c-.456-3.066-3.752-5.672-3.752-5.672z" transform="translate(-173.074 -101.9)"/><path id="Path_315" data-name="Path 315" class="cls-1" d="M190.573 111.953s-2.069 3.142-5.059 3.6a11.384 11.384 0 0 1-6.515-.766s2.683-2.989 4.829-3.679c2.913-.995 6.745.845 6.745.845z" transform="translate(-174.458 -103.982)"/></g><g id="Group_106" data-name="Group 106" transform="translate(95.018 50.509)"><path id="Path_316" data-name="Path 316" class="cls-1" d="M177.83 93.5s-1.3 3.449.077 6.132a11.8 11.8 0 0 0 4.369 4.752s.843-3.832.153-5.978c-.996-2.99-4.599-4.906-4.599-4.906z" transform="translate(-177.273 -93.5)"/><path id="Path_317" data-name="Path 317" class="cls-1" d="M195.13 100.069s-1.456 3.372-4.292 4.369a11.5 11.5 0 0 1-6.438.383s2.069-3.372 3.986-4.445c2.835-1.457 6.744-.307 6.744-.307z" transform="translate(-178.938 -94.934)"/></g><g id="Group_107" data-name="Group 107" transform="translate(96.822 43.764)"><path id="Path_318" data-name="Path 318" class="cls-1" d="M179.759 84.7s-.69 3.526 1.073 5.9a11.581 11.581 0 0 0 5.059 3.832s.153-3.832-.843-5.748c-1.456-2.758-5.289-3.984-5.289-3.984z" transform="translate(-179.627 -84.7)"/><path id="Path_319" data-name="Path 319" class="cls-1" d="M197.8 87.69s-.843 3.526-3.372 4.982a11.471 11.471 0 0 1-6.132 1.456s1.38-3.6 3.142-4.905c2.304-1.916 6.362-1.533 6.362-1.533z" transform="translate(-181.652 -85.391)"/></g><g id="Group_108" data-name="Group 108" transform="translate(97.185 36.329)"><path id="Path_320" data-name="Path 320" class="cls-1" d="M180.1 75.7s-.077 3.526 2.069 5.518a11.274 11.274 0 0 0 5.518 2.836s-.46-3.756-1.839-5.442c-1.839-2.375-5.748-2.912-5.748-2.912z" transform="translate(-180.1 -75.163)"/><path id="Path_321" data-name="Path 321" class="cls-1" d="M198.224 75s-.153 3.526-2.453 5.365a11.672 11.672 0 0 1-5.672 2.453s.766-3.679 2.146-5.288c2.07-2.223 5.979-2.53 5.979-2.53z" transform="translate(-182.435 -75)"/></g><g id="Group_109" data-name="Group 109" transform="translate(96.189 26.596)"><path id="Path_322" data-name="Path 322" class="cls-1" d="M178.8 66.4s.537 3.449 2.912 4.982a11.288 11.288 0 0 0 5.825 1.839s-1.15-3.526-2.683-4.905c-2.222-1.993-6.054-1.916-6.054-1.916z" transform="translate(-178.8 -63.257)"/><path id="Path_323" data-name="Path 323" class="cls-1" d="M196.615 62.3s.46 3.449-1.456 5.6a11.263 11.263 0 0 1-5.059 3.372s.077-3.679 1.226-5.518c1.533-2.534 5.289-3.454 5.289-3.454z" transform="translate(-181.439 -62.3)"/></g><g id="Group_110" data-name="Group 110" transform="translate(93.966 17.168)"><path id="Path_324" data-name="Path 324" class="cls-1" d="M175.9 57.342s1.073 3.219 3.679 4.292a11.276 11.276 0 0 0 5.9.766s-1.686-3.219-3.449-4.292c-2.451-1.533-6.13-.766-6.13-.766z" transform="translate(-175.9 -51.67)"/><path id="Path_325" data-name="Path 325" class="cls-1" d="M192.8 50s1 3.3-.46 5.672a10.709 10.709 0 0 1-4.292 4.062s-.537-3.6.23-5.518C189.347 51.61 192.8 50 192.8 50z" transform="translate(-178.694 -50)"/></g><g id="Group_111" data-name="Group 111" transform="translate(90.517 8.584)"><path id="Path_326" data-name="Path 326" class="cls-1" d="M171.4 48.773s1.61 2.912 4.292 3.526a10.221 10.221 0 0 0 5.825-.307s-2.146-2.836-4.062-3.6c-2.606-.999-6.055.381-6.055.381z" transform="translate(-171.4 -40.955)"/><path id="Path_327" data-name="Path 327" class="cls-1" d="M186.769 38.8s1.533 2.989.537 5.518a10.776 10.776 0 0 1-3.449 4.675s-1.15-3.372-.69-5.365c.533-2.759 3.602-4.828 3.602-4.828z" transform="translate(-174.123 -38.8)"/></g><g id="Group_112" data-name="Group 112" transform="translate(85.995 .996)"><path id="Path_328" data-name="Path 328" class="cls-1" d="M165.5 41.166s2.069 2.529 4.752 2.683a10.492 10.492 0 0 0 5.6-1.226s-2.606-2.376-4.522-2.759c-2.764-.614-5.83 1.302-5.83 1.302z" transform="translate(-165.5 -31.432)"/><path id="Path_329" data-name="Path 329" class="cls-1" d="M178.882 28.9s1.993 2.606 1.456 5.212a10.888 10.888 0 0 1-2.529 5.135s-1.686-3.066-1.61-5.059c.077-2.759 2.683-5.288 2.683-5.288z" transform="translate(-167.998 -28.9)"/></g><path id="Path_330" data-name="Path 330" class="cls-1" d="M171.188 34.261s-3.142.153-4.905-1.61A10.313 10.313 0 0 1 163.6 27.9s3.372.307 4.829 1.38c2.071 1.532 2.759 4.981 2.759 4.981z" transform="translate(-79.061 -27.67)"/></g></g><path id="Path_331" data-name="Path 331" class="cls-1" d="M103.839 6.568a.972.972 0 0 0 .46-.077l6.515 20.541a35.449 35.449 0 0 1 10.27-1.533 34.679 34.679 0 0 1 10.27 1.533l6.668-20.541a.972.972 0 0 0 .46.077 1.61 1.61 0 1 0-1.61-1.61 1.707 1.707 0 0 0 .69 1.3L129.9 17.452l-.307-8.124h.153a1.715 1.715 0 1 0-.613-.153l-4.062 6.285-3.68-12.418a1.559 1.559 0 0 0 1.3-1.533 1.61 1.61 0 1 0-3.219 0 1.5 1.5 0 0 0 1.3 1.533L117.1 15.459l-4.062-6.285a1.5 1.5 0 0 0 1-1.456 1.61 1.61 0 1 0-1.61 1.61h.153l-.383 8.124-7.664-11.19a1.707 1.707 0 0 0 .69-1.3 1.61 1.61 0 1 0-3.219 0 2.1 2.1 0 0 0 1.834 1.606z" transform="translate(-64.674 .1)"/><g id="Group_115" data-name="Group 115" transform="translate(22.993 27.515)"><path id="Path_332" data-name="Path 332" class="cls-1" d="M145.453 102.153l-.153.383 4.675 1.533.23-.843L146.45 102z" transform="translate(-97.781 -51.262)"/><path id="Path_333" data-name="Path 333" class="cls-1" d="M156.242 95.68l.69-1.226-.613.23-.537-.383-1.916 4.215-.613.077-.153.766.69.843 2.146-1.226.766-2.759z" transform="translate(-99.602 -49.463)"/><path id="Path_334" data-name="Path 334" class="cls-1" d="M135.3 103.566l.46 1 .69-.537v-.46l-.92-.766z" transform="translate(-95.445 -51.448)"/><path id="Path_335" data-name="Path 335" class="cls-1" d="M155.937 70.459l.46.92-.46 2.759.92.766-.307-1.456-.383-.307.23-.843.077.69.23-.23.307-1.073-.153-.537.383-1.226L155.4 67.7v.46l.843 1.456z" transform="translate(-100.139 -43.25)"/><path id="Path_336" data-name="Path 336" class="cls-1" d="M104.386 62.443l.23-.69-.92-.153-.307.46-.69.077v.307l.613.537z" transform="translate(-87.831 -41.826)"/><path id="Path_337" data-name="Path 337" class="cls-1" d="M105.949 61l-1.38 1.456v.46l-.537.307-.23-.307-.383.46-.383-.077.077.383h-.613l1.15 1.226.153-.537.766-.077.766-1.993.766-.153-.307-.69z" transform="translate(-87.784 -41.686)"/><path id="Path_338" data-name="Path 338" class="cls-1" d="M114.276 112l-1 .69-1.226-.23-.153.307.46.613-.46.23 1.916 1 .843-1.073-.153-.613.46.153z" transform="translate(-89.98 -53.597)"/><path id="Path_339" data-name="Path 339" class="cls-1" d="M108 50.439l2.146.383v.766l.766.077.307 1 .843.537 5.9-.383 1.073-1.3-.613-2.912z" transform="translate(-89.069 -38.79)"/><path id="Path_340" data-name="Path 340" class="cls-1" d="M154.19 64.8v.69l-.69.153.69.613.383 1v-.846l.383-.383z" transform="translate(-99.696 -42.573)"/><path id="Path_341" data-name="Path 341" class="cls-1" d="M163.439 89.31l-.383 1.456-.46-.46-1 1.38 2.146-.766.843-3.219z" transform="translate(-101.588 -47.922)"/><path id="Path_342" data-name="Path 342" class="cls-1" d="M116.564 35.8a33.264 33.264 0 1 0 33.264 33.264A33.233 33.233 0 0 0 116.564 35.8zM99.779 94.433l1.073.69c-.384-.23-.69-.46-1.073-.69zm16.785 5.059a30.434 30.434 0 0 1-15.712-4.369l.537-.153v-.383l.613.077-.46-.843 2.069.077-1.38-3.142L108.9 86l-3.756-.23-2.836-4.829.383-1.61-.843-.766.23-.307-.537-2.069h.843l2.376 8.431h4.369v-.537l1.686-.077.69-.69h.46l.077-.69.46.153.613-.843-1.533-1-.153-1-1.073.92-1.456-.613-1-2.606.92-.307 1.839 2.3 1.15-.153.307.843 4.215.307 1.916 2.376 1.073-.307 2.529 5.518.92-.613.153-.537h.307l-.077-2.3 3.142-2.989-.153-.537 2.069-1.073.537 1 .613-.077.46 1.763 1.226-1.15.46 1 .46 2.759.383-.23 1.15 1.456 1.073.077-.307-1.38-1.38-.383-.537-1.073.537-1.226 2.146.843 1.38-2.069-.537-1.61-1.61-.69 1.226-2.223.46.537-.537.92.23.307.613-.307.23-1.073-.613-.537 2.453-4.369-.383-2.836-1.3-.92-.537.077.383-1.916-.843.153-.077.843-.383-.383-.383.153-.077-.46.383-.383v-1.3h.383l.307.843.46-1.226.307-.077.46 1.073.307-.613.843 1.61.537-1.38-1.15-1.073h-.536l-.383-2.146.537-.92-3.142-5.135-.613.307.23.537h-.766l-1.226-2.989.69-1.839-1.226-1.226.153-1.15 6.668 5.365-2.223-4.675-3.3-.46-1.3-1.226.307-.153-1.763-1.915-.92.23-.69-.766.077-.613-1.073-.23.307 3.986h-.771v.92l-.843.153-.46 1.073.46.69-.46.46.537.46-1.533-.537-.537.537.23.383h-.69l-.843.766v-1.15l-.613-.46-1.073.23-.153 1-1.15 1.073.307.613h-.92l-.153.766h-.537v1.686h-.613v-1.843h-.69l-.307 1.916-1.456-.537v.843l-1.226-.537-1.533.766.307-.766-.537-.383-.383 1.3-1.916.537-.153-.69.383-.69.69.69.69-.383-1.07-2.683-6.438.383-1.38 1.226v.843l1.073-.153-.766 1.533-.537-.23.537-.69h-.69l-.843 1.15-.843-.613-.843.46-.46-.23-.383.307-1.38-.92-1.379 2.534-.613-1.916-.46-.077-1.456 1.3.153.383-.537.383.307.69-.307.766h.383l.383.766h1l.23-.613.613-.153.69.383.23-.537h.46l.153.766 1.073.153.153.537-.383.537.46 2.453-.69.766v.153l.69-.23.153-.307-.077-.307.307-.153.153.69.307-.153-.537-1.226.307-.153-.46-.69.23-1.38.46-.153.077 5.135-.383.23.153.843.307.23.46-.843.383.537.153-.613-.307-.537.23-.613.383.46.307-.153 1.38.613v-.843l.843-1 .307.23.153-.383.69-.307.537.69-.613.153.077.69h1.226l-.383-.46.077-.383 1.763.153-.766.153v.307l-.46.46 1.15 1.61-.23.537-1.226-.153-1.533-1.38-2.529-.23-.46 1.226.766 1.456.383-.307.69.843.613-.153.613.307-1.533 2.376-.92-.307-.46-.69-.613.077-2.151-2.599-.766-.077-.077.613-.46.153-.843-1.456.153-.613-.843-2.146.613-.077.383-1.15-3.142-2.529-.307-1.15-1.3-.153-1 .766-1-.613-1.533.766-.46 1.839-.531.387-.383 7.511 2.759 3.142-.767 2.147 2.223.92-2.071 2.526a30.45 30.45 0 0 1 11.88-39.318l.307 1.533-2.683 2.146 6.745-2.529-.153-.766 3.449-.766-2.069-.46V41.4l5.365-.69-.69.46-.153.69-.613-.23-.766.537 1.456 1.226-1.456-.153-.613.383-.383-.307.307-.613-2.836 1 1.15.307v.69l1.839-.537.23.307 2.989-.537 1.38 2.989 1.38-1.763-1-.537.23-.92-1.226.077-.381-.779-1.533-.537 3.6-.766-.383.537.613.23.077.613 1.61-.307.383.46-1.61.307.69.843 1.456-.46-.307-.537.613.153.46-.613-1.38-1.15 8.354 3.449.077-.92 1.073.843v-.46l-.383-.537 1.993.613.153-.383-.383-.307.383-.23-.766-.69 1.839-.077-2.606-.69-.613.383-3.526-1.839-.077-1.763a30.485 30.485 0 0 1-6.132 60.319zm-10.73-38.935l-.383.46-.23-.153.077-.383-.23-.077-.92 1.073-.383-.23-.23.153-.23-.077.153-.307-1.15-.383.077-.46-.537-.077.153-.69.383.077v.307l.23-.077.307.23.153-.23h.23l.23.23.92-.843.537.153.383-.307-.077-.537 1.993-.92.077-.23.537-.23.383.23v.307l-2.3 1.533.153.537 1.3.307-.077.23.153.23-.69.077-.307-.383-.537-.077-.23.23zm4.675 10.424l.537.307-.153.69.23-.23h.307l.077.383.307.23-.383.23-.383-.307-.23.307.077.537.383.153-.153 1.073-.843.077-1.073-.766v-.613l.46-.613h.383l-.843-1.61.23-.46-.23-.46 1.839-1 .766.307-.307.766-.383-.077-.537.383z" transform="translate(-83.3 -35.8)"/><path id="Path_343" data-name="Path 343" class="cls-1" d="M158.639 89.512l-.843-.766.23-.613-.613-.383.153-.69-.307-.46-.46.46.766 2.529.537-.077.23 1.916.69-1.15.46.307.23-1.456-.613-.307z" transform="translate(-100.466 -47.665)"/><path id="Path_344" data-name="Path 344" class="cls-1" d="M159.543 95.6l-.843 1.61.537.23.537-.766h-.766z" transform="translate(-100.91 -49.767)"/><path id="Path_345" data-name="Path 345" class="cls-1" d="M158.7 97.777V97.7z" transform="translate(-100.91 -50.257)"/><path id="Path_346" data-name="Path 346" class="cls-1" d="M158.26 98.72l.23-.92-.69 1.226z" transform="translate(-100.7 -50.281)"/></g></g></g></g></svg>