<svg xmlns="http://www.w3.org/2000/svg" viewBox="1845 167 34 34.001">
  <defs>
    <style>
      .cls-1 {
        fill: none;
        stroke: #fff;
        stroke-miterlimit: 10;
        stroke-width: 2px;
      }
    </style>
  </defs>
  <g id="basic_world" transform="translate(1630 114)">
    <path id="Path_197" data-name="Path 197" class="cls-1" d="M16.888.887a16,16,0,1,1-16,16A16,16,0,0,1,16.888.887Z" transform="translate(215.112 53.113)"/>
    <line id="Line_29" data-name="Line 29" class="cls-1" y2="31.884" transform="translate(232 54.058)"/>
    <line id="Line_30" data-name="Line 30" class="cls-1" x1="31.884" transform="translate(216.058 70)"/>
    <path id="Path_198" data-name="Path 198" class="cls-1" d="M23.2,1a21.25,21.25,0,0,0,0,31.884" transform="translate(207.772 53.058)"/>
    <path id="Path_199" data-name="Path 199" class="cls-1" d="M34,1a21.25,21.25,0,0,1,0,31.884" transform="translate(199.028 53.058)"/>
    <path id="Path_200" data-name="Path 200" class="cls-1" d="M8,12s2.571,5.143,12.342,5.143S32.685,12,32.685,12" transform="translate(211.657 47.715)"/>
    <path id="Path_201" data-name="Path 201" class="cls-1" d="M8,47.143S10.571,42,20.342,42s12.342,5.143,12.342,5.143" transform="translate(211.657 33.143)"/>
  </g>
</svg>
