<svg xmlns="http://www.w3.org/2000/svg" viewBox="5839 1382 34 34">
  <defs>
    <style>
      .cls-1 {
        fill: none;
        stroke: #b2985e;
        stroke-miterlimit: 10;
        stroke-width: 2px;
      }
    </style>
  </defs>
  <g id="Symbol_38_1" data-name="Symbol 38 – 1" transform="translate(4022 1349)">
    <path id="Path_428" data-name="Path 428" class="cls-1" d="M16.888.887a16,16,0,1,1-16,16A16,16,0,0,1,16.888.887Z" transform="translate(1817.112 33.113)"/>
    <line id="Line_46" data-name="Line 46" class="cls-1" y2="31.884" transform="translate(1834 34.058)"/>
    <line id="Line_47" data-name="Line 47" class="cls-1" x1="31.884" transform="translate(1818.058 50)"/>
    <path id="Path_429" data-name="Path 429" class="cls-1" d="M23.2,1a21.25,21.25,0,0,0,0,31.884" transform="translate(1809.771 33.058)"/>
    <path id="Path_430" data-name="Path 430" class="cls-1" d="M34,1a21.25,21.25,0,0,1,0,31.884" transform="translate(1801.028 33.058)"/>
    <path id="Path_431" data-name="Path 431" class="cls-1" d="M8,12s2.571,5.143,12.342,5.143S32.685,12,32.685,12" transform="translate(1813.657 27.715)"/>
    <path id="Path_432" data-name="Path 432" class="cls-1" d="M8,47.143S10.571,42,20.342,42s12.342,5.143,12.342,5.143" transform="translate(1813.657 13.143)"/>
  </g>
</svg>
