<svg xmlns="http://www.w3.org/2000/svg" viewBox="702 2644 98.5 100.7">
  <defs>
    <style>
      .cls-1 {
        fill: none;
        stroke: #b2985e;
        stroke-linecap: round;
        stroke-linejoin: round;
        stroke-miterlimit: 10;
        stroke-width: 4px;
      }
    </style>
  </defs>
  <g id="Symbol_50_1" data-name="Symbol 50 – 1" transform="translate(99 1022)">
    <path id="Path_471" data-name="Path 471" class="cls-1" d="M26.2,68.8A5.8,5.8,0,1,1,20.4,63,5.8,5.8,0,0,1,26.2,68.8Z" transform="translate(603 1622)"/>
    <circle id="Ellipse_20" data-name="Ellipse 20" class="cls-1" cx="5.8" cy="5.8" r="5.8" transform="translate(675 1685)"/>
    <rect id="Rectangle_58" data-name="Rectangle 58" class="cls-1" width="79.9" height="40.5" transform="translate(612.3 1637.8)"/>
    <line id="Line_88" data-name="Line 88" class="cls-1" x2="79" transform="translate(612.3 1702.4)"/>
    <path id="Path_472" data-name="Path 472" class="cls-1" d="M9.3,30.5H5.1A3.116,3.116,0,0,0,2,33.6V46.2a3.116,3.116,0,0,0,3.1,3.1H9.3" transform="translate(603 1622)"/>
    <path id="Path_473" data-name="Path 473" class="cls-1" d="M89.2,49.3h4.2a3.116,3.116,0,0,0,3.1-3.1V33.6a3.116,3.116,0,0,0-3.1-3.1H89.2" transform="translate(603 1622)"/>
    <line id="Line_89" data-name="Line 89" class="cls-1" y1="18.8" transform="translate(692.2 1652.5)"/>
    <line id="Line_90" data-name="Line 90" class="cls-1" y1="18.8" transform="translate(612.3 1652.5)"/>
    <path id="Path_474" data-name="Path 474" class="cls-1" d="M9.3,49.3V83.8a4.012,4.012,0,0,0,4,4H85.2a4.012,4.012,0,0,0,4-4V49.3" transform="translate(603 1622)"/>
    <path id="Path_475" data-name="Path 475" class="cls-1" d="M9.3,30.5V15.8H89.2V30.5" transform="translate(603 1622)"/>
    <path id="Path_476" data-name="Path 476" class="cls-1" d="M88.2,6a4.012,4.012,0,0,0-4-4H14.3a4.012,4.012,0,0,0-4,4l-1,9.8H89.2Z" transform="translate(603 1622)"/>
    <path id="Path_477" data-name="Path 477" class="cls-1" d="M12.1,87.8v9.9a1,1,0,0,0,1,1H27.3a1,1,0,0,0,1-1V87.8" transform="translate(603 1622)"/>
    <path id="Path_478" data-name="Path 478" class="cls-1" d="M69.7,87.8v9.9a1,1,0,0,0,1,1H84.9a1,1,0,0,0,1-1V87.8" transform="translate(603 1622)"/>
    <line id="Line_91" data-name="Line 91" class="cls-1" x1="25.4" y2="25.3" transform="translate(612.5 1637.8)"/>
    <line id="Line_92" data-name="Line 92" class="cls-1" x1="40.6" y2="40.6" transform="translate(650.7 1637.8)"/>
  </g>
</svg>
